<svg width="283" height="630" viewBox="0 0 283 630" fill="none" xmlns="http://www.w3.org/2000/svg">
<g id="phone">
<g id="Group">
<path id="Vector" d="M282.068 150.085H278.963V55.3377C278.963 40.7938 273.78 26.8457 264.555 16.5616C255.329 6.27753 242.817 0.5 229.77 0.5H49.7016C36.6547 0.5 24.1422 6.27753 14.9167 16.5616C5.69123 26.8457 0.508377 40.7938 0.508377 55.3377V575.124C0.508377 589.668 5.69123 603.616 14.9167 613.901C24.1422 624.185 36.6547 629.962 49.7016 629.962H229.774C236.234 629.962 242.631 628.544 248.599 625.788C254.568 623.032 259.991 618.993 264.559 613.901C269.127 608.808 272.75 602.763 275.223 596.11C277.695 589.457 278.967 582.326 278.967 575.124V217.526H282.073L282.068 150.085Z" fill="#090814"/>
<path id="Vector_2" d="M231.764 14.7696H208.262C209.343 17.7241 209.755 20.9297 209.463 24.1039C209.171 27.2781 208.183 30.3234 206.586 32.9716C204.989 35.6198 202.833 37.7896 200.307 39.2897C197.78 40.7899 194.962 41.5743 192.099 41.574H88.9319C86.0694 41.5743 83.2509 40.7899 80.7246 39.2897C78.1982 37.7896 76.0416 35.6198 74.4448 32.9716C72.848 30.3234 71.86 27.2781 71.5678 24.1039C71.2756 20.9297 71.6883 17.7241 72.7694 14.7696H50.8195C41.0763 14.7696 31.7322 19.0842 24.8427 26.7642C17.9532 34.4442 14.0827 44.8605 14.0827 55.7216V574.746C14.0829 585.607 17.9535 596.023 24.8429 603.703C31.7324 611.383 41.0764 615.697 50.8195 615.697H231.757C236.582 615.697 241.359 614.638 245.816 612.58C250.273 610.522 254.323 607.505 257.734 603.703C261.145 599.9 263.851 595.385 265.698 590.417C267.544 585.448 268.494 580.123 268.494 574.745V55.7216C268.494 44.8621 264.625 34.4472 257.737 26.7675C250.849 19.0878 241.507 14.7721 231.766 14.7696H231.764Z" fill="white"/>
</g>
</g>
</svg>
