<svg width="730" height="615" viewBox="0 0 730 615" fill="none" xmlns="http://www.w3.org/2000/svg">
<g id="room">
<g id="undraw_relaxed-reading_wfkr 1" clip-path="url(#clip0_1_119)">
<g id="Group 38">
<path id="Path 568" d="M72.4869 557.385C72.4869 557.385 -6.62739 520.984 21.1654 495.741C48.9581 470.497 72.4869 557.385 72.4869 557.385Z" fill="#81FF85"/>
<path id="Path 569" d="M71.1095 565.88C71.1095 565.88 34.7456 446.463 88.2926 452.174C141.84 457.885 71.1095 565.88 71.1095 565.88Z" fill="#81FF85"/>
<path id="Path 570" d="M44.5966 555.289L46.1226 575.264L46.1468 575.609C46.1448 578.73 46.3019 581.848 46.6176 584.953C48.6891 605.328 57.5918 614.613 67.9969 614.613C78.402 614.613 86.9173 605.328 88.9888 584.952C89.3045 581.848 89.4616 578.729 89.4595 575.609L89.4716 575.33L89.4777 575.263L91.0098 555.287L44.5966 555.289Z" fill="#FFBD72"/>
<path id="Path 571" d="M89.4811 575.264L89.475 575.332L89.4629 575.61C89.465 578.73 89.3079 581.849 88.9921 584.953H46.621C46.3052 581.849 46.1481 578.73 46.1502 575.61L46.126 575.265L89.4811 575.264Z" fill="white"/>
<path id="Path 575" d="M601.65 583.444L601.645 583.496L601.636 583.712C601.637 586.127 601.515 588.541 601.27 590.943H568.465C568.22 588.541 568.098 586.127 568.099 583.712L568.08 583.443L601.65 583.444Z" fill="white"/>
<path id="Path 576" d="M206.206 312.556V285.387H201.979V312.556C200.767 313.046 199.763 313.942 199.139 315.091C198.516 316.24 198.311 317.57 198.561 318.853C198.811 320.136 199.499 321.292 200.509 322.123C201.518 322.955 202.785 323.409 204.093 323.409C205.4 323.409 206.667 322.955 207.677 322.123C208.686 321.292 209.374 320.136 209.624 318.853C209.874 317.57 209.67 316.24 209.046 315.091C208.422 313.942 207.418 313.046 206.206 312.556Z" fill="#6D6D6D"/>
<g id="Group 39">
<path id="Path 577" d="M216.069 586.733H187.187V236.102H175.915V586.733H147.035C143.612 586.733 140.223 587.407 137.06 588.716C133.897 590.025 131.024 591.943 128.603 594.362C126.182 596.781 124.262 599.653 122.952 602.814C121.642 605.975 120.968 609.363 120.968 612.784H242.135C242.135 605.875 239.389 599.248 234.501 594.363C229.612 589.477 222.983 586.733 216.07 586.733L216.069 586.733Z" fill="black"/>
<path id="Path 578" d="M121.026 288.203H242.075L234.672 195.73C234.402 192.541 232.947 189.569 230.595 187.399C228.242 185.228 225.162 184.016 221.961 184H141.14C137.939 184.016 134.859 185.228 132.506 187.399C130.154 189.569 128.699 192.541 128.429 195.73L121.026 288.203Z" fill="#808080"/>
</g>
<path id="Path 579" d="M289.571 450.508C288.432 450.319 287.267 450.358 286.144 450.622C285.02 450.886 283.961 451.371 283.026 452.049C282.092 452.726 281.301 453.582 280.701 454.567C280.1 455.552 279.701 456.647 279.527 457.787L276.119 480.14L287.715 483.214L296.211 462.387C296.705 461.177 296.92 459.871 296.84 458.567C296.76 457.262 296.387 455.992 295.75 454.851C295.112 453.71 294.225 452.728 293.156 451.976C292.087 451.224 290.862 450.722 289.572 450.507L289.571 450.508Z" fill="#FFB9B9"/>
<path id="Path 580" d="M289.354 480.099C295.789 505.658 293.02 529.035 269.057 547.392C240.316 539.473 221.2 520.369 209.536 492.602C208.811 490.875 208.443 489.02 208.455 487.148C208.467 485.275 208.859 483.425 209.606 481.708C210.354 479.991 211.442 478.443 212.804 477.158C214.166 475.873 215.775 474.877 217.533 474.23C220.175 473.26 223.05 473.116 225.775 473.818C228.501 474.52 230.948 476.035 232.791 478.161L260.991 510.695L274.22 477.892L289.354 480.099Z" fill="#FF9FE7"/>
<path id="Path 581" d="M436.614 614.197C410.371 612.804 394.068 603.798 390.12 585.33L394.347 577.585L442.74 599.618C443.962 600.174 444.99 601.081 445.695 602.223C446.4 603.365 446.749 604.691 446.698 606.032C446.647 607.373 446.198 608.668 445.409 609.753C444.619 610.839 443.524 611.665 442.264 612.126L436.614 614.197Z" fill="#FFB9B9"/>
<path id="Path 582" d="M416.336 614.382C402.701 613.969 389.588 614.098 377.162 614.938C374.983 615.087 372.832 614.371 371.178 612.945C369.523 611.52 368.497 609.499 368.323 607.323L367.578 598.003L357.011 581.105L366.169 571.952C381.559 587.272 398.438 600.14 418.484 607.789C419.128 608.23 419.612 608.868 419.864 609.607C420.115 610.346 420.12 611.146 419.878 611.889C419.637 612.631 419.161 613.275 418.522 613.724C417.884 614.173 417.117 614.404 416.337 614.382L416.336 614.382Z" fill="#FFB9B9"/>
<path id="Path 583" d="M342.217 548.014C324.806 579.152 307.684 600.144 285.153 611.381C257.444 620.523 237.186 608.411 221.4 583.57L267.196 553.294L273.888 559.983L334.541 513.853C336.022 512.451 337.998 511.689 340.038 511.735C342.079 511.78 344.018 512.628 345.436 514.095L397.17 577.585L390.83 588.146L342.217 548.014Z" fill="#0D009C"/>
<path id="Path 584" opacity="0.798" d="M357.714 584.626L333.763 548.014L339.398 537.453L371.098 570.544L357.714 584.626Z" fill="#0C0093"/>
<path id="Path 585" d="M225.982 488.166L199.214 479.013C203.176 472.722 204.912 465.285 204.145 457.891H225.983C224.74 468.634 224.554 478.824 225.982 488.166Z" fill="#FFB9B9"/>
<path id="Path 586" d="M276.418 563.949C272.405 565.596 278.737 559.224 274.941 561.039C256.597 569.811 237.19 576.928 223.868 589.554C192.736 568.425 163.881 502.799 201.325 474.085C214.104 481.561 225.524 486.91 225.277 474.085L250.847 519.017L276.418 563.949Z" fill="#FF9FE7"/>
<path id="Path 587" opacity="0.2" d="M266.841 524.075L253.808 519.498L228.096 539.565L216.57 498.09C215.77 495.214 214.475 496.672 212.615 498.67C210.676 496.877 208.264 495.675 205.665 495.207C203.065 494.739 200.386 495.023 197.942 496.026C195.499 497.029 193.393 498.709 191.874 500.869C190.354 503.029 189.484 505.577 189.366 508.215C187.991 538.3 197.071 563.75 219.642 583.217C249.164 576.898 261.692 556.965 266.841 531.115L265.445 530.185C265.959 528.188 266.424 526.151 266.841 524.075Z" fill="black"/>
<path id="Path 589" d="M267.894 492.688L289.815 518.446L322.696 479.66L300.479 452.717L267.894 492.688Z" fill="#3F3D56"/>
<path id="Path 590" d="M317.068 480.548L291.001 459.232C292.48 455.679 299.591 456.863 299.591 456.863L319.997 477.539C320.708 478.26 321.317 479.074 321.808 479.959L317.068 480.548Z" fill="#F2F2F2"/>
<path id="Path 591" d="M318.252 479.068L288.629 455.975L255.747 505.718L286.709 526.587C289.668 527.772 292.633 525.699 292.633 525.699L322.848 479.513L318.252 479.068Z" fill="#3F3D56"/>
<path id="Rectangle 195" d="M292.327 463.184L292.047 463.574L311.005 477.202L311.286 476.812L292.327 463.184Z" fill="#6C63FF"/>
<path id="Rectangle 196" d="M311.554 481.9L286.656 519.498L287.057 519.762L311.955 482.165L311.554 481.9Z" fill="#6C63FF"/>
<path id="Rectangle 197" d="M263.89 505.814L263.606 506.201L283.744 521.01L284.029 520.624L263.89 505.814Z" fill="#6C63FF"/>
<path id="Rectangle 198" d="M288.731 463.833L262.959 500.841L263.353 501.116L289.125 464.107L288.731 463.833Z" fill="#6C63FF"/>
<path id="Rectangle 199" d="M296.692 456.57L296.492 456.788L319.933 478.29L320.133 478.072L296.692 456.57Z" fill="#B3B3B3"/>
<path id="Rectangle 200" d="M294.74 456.754L294.544 456.977L319.042 478.593L319.238 478.37L294.74 456.754Z" fill="#B3B3B3"/>
<path id="Rectangle 201" d="M293.206 457.185L293.016 457.413L318.443 478.591L318.633 478.363L293.206 457.185Z" fill="#B3B3B3"/>
<path id="Path 592" d="M279.727 500.25C278.78 499.591 277.711 499.127 276.582 498.884C275.454 498.642 274.288 498.626 273.153 498.837C272.019 499.049 270.937 499.484 269.972 500.116C269.007 500.749 268.177 501.567 267.531 502.523L254.864 521.259L264.023 529.004L280.631 513.828C281.597 512.946 282.351 511.859 282.838 510.646C283.325 509.433 283.533 508.126 283.447 506.822C283.36 505.518 282.98 504.25 282.337 503.112C281.693 501.974 280.801 500.996 279.727 500.25Z" fill="#FFB9B9"/>
<path id="Path 593" d="M266.841 526.891C261.693 552.74 249.164 572.675 219.642 578.993C197.071 559.525 187.991 534.074 189.365 503.991C189.451 502.121 189.914 500.287 190.728 498.601C191.542 496.915 192.689 495.411 194.101 494.18C195.512 492.949 197.159 492.017 198.941 491.439C200.723 490.862 202.603 490.651 204.469 490.82C207.272 491.075 209.931 492.177 212.092 493.979C214.254 495.781 215.815 498.198 216.568 500.908L228.095 542.383L254.115 518.415L266.841 526.891Z" fill="#FF9FE7"/>
<path id="Path 594" d="M621.722 615.001H0V613.465H622L621.722 615.001Z" fill="#3F3D56"/>
<path id="Path 595" d="M324.958 248.428C324.585 248.429 324.227 248.578 323.963 248.842C323.699 249.105 323.55 249.463 323.549 249.836V359.673C323.55 360.047 323.699 360.404 323.963 360.668C324.227 360.932 324.585 361.081 324.958 361.082H416.538C416.911 361.081 417.269 360.932 417.533 360.668C417.797 360.404 417.946 360.047 417.947 359.673V249.836C417.946 249.463 417.797 249.105 417.533 248.842C417.269 248.578 416.911 248.429 416.538 248.428H324.958Z" fill="#FFDEC0"/>
<path id="Path 596" d="M334.469 350.167H407.029V259.341H334.469V350.167Z" fill="white"/>
<path id="Path 597" d="M477.424 277.296C477.201 277.296 476.987 277.384 476.83 277.542C476.672 277.7 476.583 277.914 476.583 278.136V332.781C476.583 333.004 476.672 333.218 476.83 333.376C476.987 333.534 477.201 333.622 477.424 333.622H543.034C543.257 333.622 543.471 333.534 543.628 333.376C543.786 333.218 543.875 333.004 543.875 332.781V278.136C543.875 277.914 543.786 277.7 543.628 277.542C543.471 277.384 543.257 277.296 543.034 277.296H477.424Z" fill="#FFDEC0"/>
<path id="Path 598" d="M483.103 283.811V327.109H537.357V283.811H483.103Z" fill="white"/>
<path id="Path 599" d="M383.56 256.172H357.935C357.316 256.174 356.707 256.013 356.17 255.705C355.633 255.396 355.187 254.952 354.878 254.416C354.568 253.879 354.406 253.271 354.407 252.652C354.408 252.033 354.573 251.426 354.885 250.891L367.697 228.713L367.729 228.658C368.009 228.186 368.396 227.788 368.86 227.494C369.324 227.201 369.85 227.021 370.396 226.97H370.415C370.525 226.959 370.636 226.954 370.747 226.954C371.366 226.95 371.975 227.112 372.511 227.421C373.047 227.73 373.491 228.177 373.797 228.715L386.612 250.892C386.921 251.427 387.084 252.035 387.084 252.653C387.084 253.271 386.921 253.878 386.612 254.413C386.303 254.948 385.858 255.392 385.323 255.701C384.787 256.01 384.18 256.173 383.562 256.173L383.56 256.172ZM357.229 252.648C357.23 252.773 357.263 252.896 357.326 253.004C357.387 253.112 357.475 253.201 357.583 253.263C357.69 253.325 357.812 253.357 357.936 253.356H383.56C383.684 253.357 383.806 253.325 383.913 253.263C384.021 253.201 384.109 253.112 384.17 253.004C384.233 252.896 384.266 252.773 384.267 252.649C384.266 252.526 384.233 252.406 384.17 252.3L371.358 230.121C371.296 230.014 371.207 229.925 371.1 229.864C370.993 229.802 370.871 229.769 370.748 229.769C370.624 229.769 370.502 229.802 370.395 229.864C370.288 229.925 370.199 230.014 370.137 230.121L357.326 252.3C357.263 252.406 357.23 252.525 357.229 252.648Z" fill="#D8D8D8"/>
<path id="Ellipse 91" d="M370.747 233.642C371.914 233.642 372.861 232.696 372.861 231.53C372.861 230.363 371.914 229.418 370.747 229.418C369.58 229.418 368.634 230.363 368.634 231.53C368.634 232.696 369.58 233.642 370.747 233.642Z" fill="#E6E6E6"/>
<path id="Path 600" d="M517.176 279.055H503.284C502.948 279.057 502.618 278.969 502.327 278.802C502.036 278.635 501.794 278.394 501.627 278.103C501.459 277.813 501.371 277.483 501.371 277.147C501.372 276.812 501.461 276.482 501.63 276.192L508.577 264.168L508.594 264.139C508.746 263.883 508.956 263.667 509.207 263.508C509.458 263.348 509.744 263.251 510.04 263.223H510.05C510.109 263.218 510.17 263.215 510.23 263.215C510.566 263.213 510.896 263.301 511.187 263.468C511.477 263.636 511.718 263.878 511.884 264.17L518.833 276.192C519.001 276.483 519.089 276.812 519.088 277.147C519.088 277.483 519 277.812 518.832 278.102C518.664 278.392 518.423 278.633 518.132 278.8C517.841 278.968 517.512 279.056 517.176 279.055ZM502.901 277.145C502.901 277.213 502.919 277.279 502.953 277.338C502.986 277.396 503.034 277.445 503.093 277.479C503.151 277.512 503.217 277.53 503.284 277.529H517.176C517.244 277.53 517.31 277.512 517.368 277.479C517.426 277.445 517.474 277.396 517.507 277.338C517.541 277.279 517.559 277.213 517.56 277.146C517.559 277.079 517.541 277.014 517.507 276.957L510.561 264.931C510.527 264.873 510.479 264.825 510.421 264.791C510.363 264.758 510.297 264.74 510.23 264.74C510.163 264.74 510.097 264.758 510.039 264.791C509.98 264.825 509.932 264.873 509.899 264.931L502.953 276.955C502.919 277.013 502.9 277.078 502.9 277.144L502.901 277.145Z" fill="#C7C7C7"/>
<path id="Ellipse 92" d="M510.23 266.841C510.863 266.841 511.376 266.328 511.376 265.695C511.376 265.063 510.863 264.55 510.23 264.55C509.597 264.55 509.084 265.063 509.084 265.695C509.084 266.328 509.597 266.841 510.23 266.841Z" fill="#E6E6E6"/>
<path id="Path 601" d="M335.298 315.584C336.311 313.261 337.786 311.168 339.635 309.434C341.483 307.699 343.666 306.36 346.05 305.496C348.528 304.54 351.185 304.13 353.837 304.295C356.489 304.46 359.074 305.195 361.415 306.451C366.912 309.367 371.307 313.952 376.89 316.743C382.319 319.431 388.293 320.837 394.351 320.854C401.211 320.907 407.963 319.154 413.93 315.772C414.163 315.626 414.33 315.396 414.396 315.129C414.462 314.862 414.421 314.58 414.282 314.343C414.143 314.106 413.918 313.932 413.653 313.858C413.388 313.785 413.105 313.817 412.864 313.948C407.455 316.978 401.381 318.622 395.183 318.736C388.984 318.849 382.854 317.429 377.338 314.6C371.737 311.664 367.298 306.925 361.592 304.175C359.17 303 356.539 302.317 353.85 302.166C351.162 302.016 348.471 302.4 345.932 303.296C343.109 304.242 340.52 305.777 338.335 307.798C336.15 309.82 334.42 312.282 333.258 315.022C332.746 316.28 334.789 316.827 335.296 315.583L335.298 315.584Z" fill="black"/>
<path id="Path 602" d="M333.628 335.328C345.356 332.711 357.522 332.753 369.231 335.451C379.634 337.862 390.372 342.2 401.096 338.964C405.888 337.519 410.28 334.628 412.741 330.179C413.4 328.989 411.576 327.922 410.916 329.113C406.282 337.489 395.423 338.903 386.848 337.528C381.117 336.61 375.595 334.768 369.954 333.451C357.829 330.61 345.216 330.555 333.066 333.29C331.739 333.587 332.301 335.624 333.628 335.328Z" fill="black"/>
<path id="Path 603" d="M332.868 288.114C344.113 286.202 355.63 286.612 366.711 289.317C377.063 291.852 387.182 297.644 398.128 296.644C403.196 296.181 408.213 294.318 411.655 290.444C412.556 289.43 411.066 287.931 410.161 288.95C407.19 292.293 402.913 294.025 398.525 294.493C393.466 295.031 388.495 293.985 383.68 292.497C378.35 290.849 373.172 288.762 367.752 287.4C356.16 284.491 344.086 284.041 332.309 286.078C330.971 286.307 331.538 288.342 332.87 288.115L332.868 288.114Z" fill="#A8A8A8"/>
<path id="Path 604" d="M492.551 283.101C497.41 288.073 500.761 294.319 502.217 301.116C503.338 306.522 503.211 312.113 501.848 317.464C500.484 322.814 497.92 327.784 494.349 331.997C493.474 333.027 494.961 334.528 495.843 333.491C500.707 327.762 503.813 320.752 504.788 313.303C505.498 307.552 504.901 301.715 503.041 296.227C501.18 290.739 498.105 285.741 494.043 281.606C493.09 280.634 491.595 282.128 492.549 283.1L492.551 283.101Z" fill="black"/>
<path id="Path 605" d="M524.259 278.59C517.782 283.337 514.156 291 513.646 298.927C513.115 307.174 516.262 315.139 521.33 321.542C524.286 325.229 527.818 328.416 531.79 330.979C532.933 331.725 533.991 329.898 532.857 329.156C526.387 324.924 520.85 318.914 517.91 311.701C516.476 308.274 515.733 304.598 515.722 300.884C515.712 297.17 516.434 293.491 517.848 290.056C519.432 286.231 522.014 282.902 525.325 280.415C526.411 279.619 525.358 277.785 524.259 278.591V278.59Z" fill="#8E8E8E"/>
<path id="Ellipse 93" d="M375.679 299.826C381.126 299.826 385.542 295.412 385.542 289.969C385.542 284.525 381.126 280.111 375.679 280.111C370.232 280.111 365.817 284.525 365.817 289.969C365.817 295.412 370.232 299.826 375.679 299.826Z" fill="#FF4C00"/>
<g id="Group 37">
<path id="Ellipse 66" d="M217.049 468.093C230.506 469.036 242.18 458.896 243.125 445.446C244.069 431.996 233.926 420.327 220.469 419.384C207.012 418.442 195.338 428.581 194.394 442.031C193.449 455.482 203.593 467.15 217.049 468.093Z" fill="#FFB9B9"/>
<path id="Ellipse 67" d="M181.17 432.367C193.075 433.201 203.402 424.231 204.238 412.332C205.073 400.433 196.1 390.11 184.195 389.276C172.291 388.442 161.963 397.412 161.127 409.311C160.292 421.21 169.265 431.532 181.17 432.367Z" fill="#090814"/>
<path id="Path 417" d="M162.837 427.359C165.485 429.569 168.625 431.113 171.992 431.861C175.36 432.61 178.858 432.542 182.194 431.663C185.53 430.783 188.607 429.119 191.168 426.808C193.729 424.496 195.699 421.606 196.913 418.378C196.335 421.309 195.155 424.087 193.448 426.539C191.741 428.99 189.544 431.061 186.995 432.621C184.447 434.181 181.603 435.195 178.642 435.601C175.682 436.006 172.669 435.793 169.795 434.976C166.922 434.159 164.248 432.754 161.945 430.852C159.642 428.95 157.758 426.59 156.413 423.924C155.068 421.257 154.291 418.34 154.131 415.357C153.971 412.375 154.432 409.392 155.484 406.596C154.733 410.398 155.019 414.332 156.313 417.986C157.606 421.639 159.86 424.877 162.837 427.359Z" fill="#090814"/>
<path id="Path 418" d="M247.905 433.34C244.615 426.345 243.373 423.435 238.809 418.992C234.772 415.069 229.569 413.637 225.07 416.769C220.052 414.148 214.308 413.256 208.73 414.233C203.152 415.21 198.053 418 194.224 422.171C190.396 426.343 188.053 431.66 187.559 437.299C187.065 442.937 188.448 448.581 191.493 453.353C194.538 458.125 199.074 461.759 204.397 463.689C209.72 465.619 215.532 465.738 220.931 464.027C226.329 462.316 231.01 458.871 234.249 454.228C237.487 449.584 239.101 444.002 238.839 438.348C242.576 438.091 244.168 433.605 247.905 433.34Z" fill="#090814"/>
</g>
</g>
</g>
<g id="Group 41">
<rect id="Rectangle 205" x="605" y="598" width="91" height="10" fill="#808080"/>
<rect id="Rectangle 204" x="647" y="491" width="8" height="111" fill="#808080"/>
<g id="fan" clip-path="url(#clip1_1_119)">
<path id="fan_blade" d="M651.175 413C650.734 413 650.292 413.026 649.851 413.13C627.641 417.416 614.029 439.574 617.899 462.174C618.653 466.59 620.081 470.72 622.03 474.487L592.312 471.188H591.637C587.429 471.188 584 474.616 584 478.825C584 479.266 584.026 479.708 584.13 480.149C588.416 502.359 610.574 515.971 633.174 512.101C637.59 511.347 641.72 509.919 645.487 507.97L642.188 537.688V538.363C642.188 542.571 645.616 546 649.825 546C650.266 546 650.708 545.974 651.149 545.87C673.359 541.584 686.971 519.426 683.101 496.826C682.347 492.41 680.919 488.28 678.97 484.513L708.688 487.812H709.363C713.571 487.812 717 484.384 717 480.175C717 479.734 716.974 479.292 716.87 478.851C712.584 456.641 690.426 443.029 667.826 446.899C663.41 447.653 659.28 449.081 655.513 451.03L658.812 421.312V420.637C658.812 416.429 655.384 413 651.175 413ZM650.5 471.188C652.705 471.188 654.819 472.063 656.378 473.622C657.937 475.181 658.812 477.295 658.812 479.5C658.812 481.705 657.937 483.819 656.378 485.378C654.819 486.937 652.705 487.812 650.5 487.812C648.295 487.812 646.181 486.937 644.622 485.378C643.063 483.819 642.188 481.705 642.188 479.5C642.188 477.295 643.063 475.181 644.622 473.622C646.181 472.063 648.295 471.188 650.5 471.188Z" fill="#F66C6C"/>
</g>
<circle id="Ellipse 96" cx="651" cy="479" r="78.5" stroke="#FFB5B5"/>
</g>
<g id="Group 40">
<rect id="Rectangle 202" x="354" width="303" height="79" rx="10" fill="#D9D9D9"/>
<path id="Rectangle 203" d="M410 39.5H602C606.142 39.5 609.5 42.8579 609.5 47V80.5H402.5V47C402.5 42.8579 405.858 39.5 410 39.5Z" fill="#D9D9D9" stroke="white" stroke-width="5"/>
<circle id="Ellipse 94" cx="575.5" cy="29.5" r="3.5" fill="white"/>
<circle id="Ellipse 95" cx="588.5" cy="29.5" r="3.5" fill="white"/>
<circle id="acButton" cx="601.5" cy="29.5" r="3.5" fill="white"/>
</g>
<path id="acWind" d="M539.125 119.875C537.535 119.875 536.25 121.16 536.25 122.75L536.25 125.625C536.25 127.215 534.965 128.5 533.375 128.5C531.785 128.5 530.5 127.215 530.5 125.625L530.5 96.875C530.5 95.2848 529.215 94 527.625 94C526.035 94 524.75 95.2848 524.75 96.875L524.75 125.625C524.75 130.387 528.613 134.25 533.375 134.25C538.137 134.25 542 130.387 542 125.625L542 122.75C542 121.16 540.715 119.875 539.125 119.875ZM507.5 125.625C505.91 125.625 504.625 126.91 504.625 128.5L504.625 131.375C504.625 136.137 508.488 140 513.25 140C518.012 140 521.875 136.137 521.875 131.375L521.875 96.875C521.875 95.2848 520.59 94 519 94C517.41 94 516.125 95.2848 516.125 96.875L516.125 131.375C516.125 132.965 514.84 134.25 513.25 134.25C511.66 134.25 510.375 132.965 510.375 131.375L510.375 128.5C510.375 126.91 509.09 125.625 507.5 125.625ZM496 105.5L496 108.375C496 113.137 499.863 117 504.625 117C509.387 117 513.25 113.137 513.25 108.375L513.25 96.875C513.25 95.2848 511.965 94 510.375 94C508.785 94 507.5 95.2848 507.5 96.875L507.5 108.375C507.5 109.965 506.215 111.25 504.625 111.25C503.035 111.25 501.75 109.965 501.75 108.375L501.75 105.5C501.75 103.91 500.465 102.625 498.875 102.625C497.285 102.625 496 103.91 496 105.5Z" fill="white"/>
</g>
<defs>
<clipPath id="clip0_1_119">
<rect width="622" height="431" fill="white" transform="translate(0 184)"/>
</clipPath>
<clipPath id="clip1_1_119">
<rect width="133" height="133" fill="white" transform="translate(584 413)"/>
</clipPath>
</defs>
</svg>
